<svg fill="#000000" xmlns="http://www.w3.org/2000/svg"  viewBox="0 0 24 24" width="48px" height="48px"><path d="M 3.878906 0.191406 L 8 4.3125 C 8 4.3125 8 5.542969 6.773438 6.773438 C 5.542969 8 4.3125 8 4.3125 8 L 0.191406 3.878906 C -0.394531 6.199219 0.398438 9.003906 2.113281 10.71875 C 3.699219 12.304688 5.394531 12.28125 7.054688 11.382813 C 7.335938 11.230469 7.953125 10.984375 8.652344 11.6875 C 12.300781 15.332031 19.1875 23.019531 19.320313 23.152344 C 20.421875 24.253906 22.171875 24.285156 23.226563 23.226563 C 24.285156 22.171875 24.253906 20.421875 23.152344 19.320313 C 23.015625 19.1875 15.164063 12.152344 11.582031 8.570313 C 10.917969 7.902344 11.179688 7.414063 11.316406 7.171875 C 12.277344 5.476563 12.339844 3.738281 10.71875 2.113281 C 9.003906 0.398438 6.199219 -0.394531 3.878906 0.191406 Z M 22.199219 21 C 22.199219 21.664063 21.664063 22.199219 21 22.199219 C 20.335938 22.199219 19.800781 21.664063 19.800781 21 C 19.800781 20.335938 20.335938 19.800781 21 19.800781 C 21.664063 19.800781 22.199219 20.335938 22.199219 21 Z"/></svg>